<svg width="50" height="50" viewBox="0 0 50 50" fill="none" xmlns="http://www.w3.org/2000/svg">
<path fill-rule="evenodd" clip-rule="evenodd" d="M45.4854 0H4.51465C2.03174 0 0 2.0293 0 4.50977V45.4902C0 47.9707 2.03174 50 4.51465 50H17.6475H18.6475H45.4854C47.9683 50 50 47.9707 50 45.4902V4.50977C50 2.0293 47.9683 0 45.4854 0ZM18.6475 47.1816H35.1582C36.3994 47.1816 37.4155 46.167 37.4155 44.9268H37.3589V40.8682C37.3589 39.6279 36.3433 38.6133 35.1016 38.6133H18.6475V47.1816ZM17.6475 38.6133H14.8418C13.6006 38.6133 12.5845 39.6279 12.5845 40.8682V44.9268C12.5845 46.167 13.6006 47.1816 14.8418 47.1816H17.6475V38.6133ZM6.60254 29.0869C5.64355 29.0869 4.85352 28.2979 4.85352 27.3394V11.7646H13.4312V27.3394C13.4312 28.2979 12.6411 29.0869 11.6816 29.0869H6.60254ZM4.85352 6.08789V10.7646H13.4312V6.08789C13.4312 5.12988 12.6411 4.34033 11.6816 4.34033H6.60254C5.64355 4.34033 4.85352 5.12988 4.85352 6.08789ZM36.0044 27.2832V11.7646H44.6387V27.2832C44.6387 28.2979 43.7925 29.1431 42.7764 29.1431H37.8667C36.8511 29.1431 36.0044 28.2979 36.0044 27.2832ZM36.0044 10.7646H44.6387V6.14453C44.6387 5.12988 43.7925 4.28418 42.7764 4.28418H37.8667C36.8511 4.28418 36.0044 5.12988 36.0044 6.14453V10.7646Z" fill="#FFA800"/>
</svg>
