<svg width="50" height="50" viewBox="0 0 50 50" fill="none" xmlns="http://www.w3.org/2000/svg">
<path fill-rule="evenodd" clip-rule="evenodd" d="M4.51467 0H45.4853C47.9684 0 50 2.04545 50 4.54545V45.4545C50 47.9545 47.9684 50 45.4853 50H4.51467C2.0316 50 0 47.9545 0 45.4545V4.54545C0 2.04545 2.0316 0 4.51467 0ZM38.6005 6.25C37.3589 6.25 36.3431 7.27273 36.3431 8.52273V13.706H44.9774V8.52273C44.9774 7.27273 43.9616 6.25 42.7201 6.25H38.6005ZM44.9774 14.706H36.3431V29.5455C36.3431 30.7955 37.3589 31.8182 38.6005 31.8182H42.7201C43.9616 31.8182 44.9774 30.7955 44.9774 29.5455V14.706ZM13.3747 13.706V8.75C13.3747 7.38636 12.246 6.25 10.8916 6.25H7.22348C5.86907 6.25 4.74041 7.38636 4.74041 8.75V13.706H13.3747ZM4.74041 14.706H13.3747V29.375C13.3747 30.7386 12.246 31.875 10.8916 31.875H7.22348C5.86907 31.875 4.74041 30.7386 4.74041 29.375V14.706ZM44.8081 49.2045C47.1783 49.2045 49.1535 47.2727 49.1535 44.8295V36.7045H0.846501V44.8295C0.846501 47.2159 2.76524 49.2045 5.19187 49.2045H44.8081Z" fill="#FFA800"/>
</svg>
